# xmcd
#
# Track frame offsets: 
#        150
#        12345
#        26894
#        43270
#        57476
#        71417
#        98553
#        116404
#        128954
#        145833
#        158587
#
# Disc length: 2178 seconds
#
# Revision: 0
# Processed by: cddbd v1.5.2PL0 Copyright (c) Steve Scherf et al.
# Submitted via: ExactAudioCopyFreeDBPlugin 1.0
#
DISCID=9408800b
DTITLE=Noise Pollution - Noise Pollution Blues Band
DYEAR=2000
DGENRE=Blues
TTITLE0=You're Humbuggin' Me
TTITLE1=What's The Matter With The Mill
TTITLE2=Tell Me
TTITLE3=No More Changes
TTITLE4=Man Like Me
TTITLE5=Playin' With Fire
TTITLE6=So Cool
TTITLE7=Letter To My Girlfriend
TTITLE8=Goodbye Little Girl
TTITLE9=Blues Man
TTITLE10=Booooooonus
EXTD=
EXTT0=
EXTT1=
EXTT2=
EXTT3=
EXTT4=
EXTT5=
EXTT6=
EXTT7=
EXTT8=
EXTT9=
EXTT10=
PLAYORDER=
